<?xml version="1.0" standalone="no"?>
<!DOCTYPE svg PUBLIC "-//W3C//DTD SVG 20010904//EN"
 "http://www.w3.org/TR/2001/REC-SVG-20010904/DTD/svg10.dtd">
<svg version="1.0" xmlns="http://www.w3.org/2000/svg"
 width="600.000000pt" height="600.000000pt" viewBox="0 0 600.000000 600.000000"
 preserveAspectRatio="xMidYMid meet">
<metadata>
Created by potrace 1.14, written by Peter Selinger 2001-2017
</metadata>
<g transform="translate(0.000000,600.000000) scale(0.100000,-0.100000)"
fill="#000000" stroke="none">
<path d="M2835 5700 c-66 -4 -147 -15 -180 -23 -33 -9 -116 -28 -185 -43 -69
-14 -143 -34 -165 -44 -22 -10 -69 -28 -105 -40 -36 -12 -83 -33 -105 -45 -22
-13 -51 -26 -63 -30 -56 -16 -200 -110 -337 -218 -194 -153 -399 -412 -496
-627 -11 -25 -31 -67 -44 -95 -28 -60 -84 -198 -131 -319 -19 -49 -38 -94 -43
-100 -4 -6 -22 -47 -39 -91 -54 -143 -166 -416 -192 -470 -11 -22 -33 -74 -49
-115 -48 -122 -97 -242 -118 -290 -34 -75 -101 -299 -119 -395 -25 -136 -30
-441 -10 -593 30 -230 169 -579 301 -758 16 -23 57 -78 89 -123 144 -198 409
-423 701 -595 336 -199 806 -344 1220 -377 158 -13 481 -7 590 11 367 58 695
164 989 319 321 169 515 317 708 541 132 154 145 170 199 260 124 205 196 375
245 577 53 223 65 387 44 588 -10 96 -70 352 -96 413 -9 20 -29 73 -44 117
-34 96 -106 273 -120 298 -6 10 -24 55 -41 100 -16 45 -39 102 -51 127 -11 25
-29 68 -38 96 -10 28 -25 65 -34 82 -9 17 -27 59 -40 94 -35 91 -103 255 -130
313 -13 28 -27 61 -31 75 -28 92 -168 389 -233 495 -119 193 -314 392 -517
526 -135 89 -315 184 -405 214 -30 10 -71 26 -90 35 -19 10 -91 30 -160 45
-69 14 -136 31 -150 36 -67 24 -351 40 -525 29z m395 -314 c14 -3 71 -16 128
-28 56 -12 102 -26 102 -29 0 -11 -70 -52 -77 -46 -8 9 -35 -22 -28 -32 3 -6
-10 -13 -29 -17 -34 -6 -55 -32 -42 -53 3 -5 -1 -22 -9 -37 l-16 -29 7 39 c5
29 4 37 -5 31 -12 -7 -20 -25 -36 -73 -6 -22 -5 -23 16 -17 23 7 23 7 4 -11
-13 -13 -20 -15 -23 -6 -8 26 -24 11 -18 -18 7 -39 -1 -39 -11 0 l-8 29 -12
-24 c-6 -14 -7 -23 -3 -20 5 3 11 1 15 -5 3 -5 1 -10 -5 -10 -6 0 -16 -11 -22
-25 -6 -14 -20 -25 -30 -25 -17 0 -19 -5 -13 -32 10 -46 14 -49 35 -38 10 5
40 10 65 10 40 0 52 -5 81 -34 31 -31 34 -40 34 -91 0 -51 -3 -60 -30 -85 -17
-16 -45 -32 -63 -36 -28 -6 -30 -8 -12 -15 l20 -8 -20 -1 -20 -1 20 -8 c11 -5
23 -7 28 -4 4 2 7 -1 7 -6 0 -6 7 -11 15 -11 8 0 15 -4 15 -9 0 -5 9 -13 20
-16 11 -3 20 -13 20 -21 0 -8 8 -14 18 -14 10 0 27 -7 38 -15 18 -14 18 -14 0
-15 -14 0 -9 -7 19 -26 48 -32 65 -49 66 -66 0 -10 2 -10 6 0 2 6 9 12 15 12
5 0 8 -6 5 -12 -5 -15 22 -72 30 -64 9 9 44 -14 38 -25 -4 -5 0 -9 9 -9 8 0
16 -3 18 -7 2 -5 24 -18 49 -30 35 -16 48 -28 52 -50 7 -34 39 -73 60 -73 22
0 29 -31 18 -81 -7 -30 -7 -46 1 -50 16 -10 5 -43 -20 -54 -12 -5 -22 -16 -22
-23 0 -7 4 -11 10 -7 5 3 9 -7 8 -22 -1 -15 11 -80 26 -143 92 -391 159 -777
172 -1000 6 -117 -10 -433 -26 -505 -63 -277 -86 -352 -162 -515 -39 -82 -51
-102 -59 -90 -9 12 -10 11 -5 -4 13 -40 -140 -253 -284 -396 -105 -105 -215
-188 -323 -245 -104 -55 -173 -75 -256 -75 -80 0 -134 23 -178 73 -37 42 -48
86 -39 154 4 26 8 60 9 75 1 14 4 24 6 22 7 -7 41 28 41 43 0 7 4 13 10 13 5
0 7 7 4 15 -8 19 -24 20 -24 1 0 -22 -36 -26 -37 -5 -1 11 3 19 8 19 6 0 7 -5
3 -12 -4 -7 -3 -8 5 -4 6 4 9 11 6 16 -3 5 27 28 67 51 210 122 249 146 316
196 274 204 464 486 546 813 49 193 61 299 60 535 -1 241 -16 367 -94 833 -38
224 -42 239 -78 296 -62 99 -147 146 -267 146 -95 -1 -185 -54 -240 -141 -37
-57 -43 -97 -60 -379 -33 -547 -71 -803 -150 -1006 -153 -391 -414 -701 -755
-897 -291 -168 -516 -206 -707 -117 -64 29 -170 125 -196 177 -71 139 -80 260
-29 392 18 46 46 100 63 120 76 90 81 94 334 281 315 232 475 492 596 970 59
234 70 293 67 367 -3 61 -8 78 -34 115 -35 48 -120 104 -173 114 -46 9 -115
-10 -174 -48 -54 -34 -98 -102 -152 -232 -113 -274 -141 -323 -225 -399 -28
-26 -75 -57 -103 -71 -57 -28 -203 -54 -217 -40 -9 9 37 139 80 229 10 22 31
74 46 115 14 41 30 80 34 85 5 6 22 48 39 94 17 46 34 88 39 95 5 6 21 47 37
91 15 44 33 89 39 100 7 11 21 43 31 70 20 54 120 262 161 335 61 106 212 280
320 368 56 45 196 142 205 142 5 0 36 18 70 40 34 22 67 40 72 40 6 0 38 14
73 30 63 31 278 79 441 99 80 10 458 8 503 -3z m269 -65 c7 -5 9 -11 5 -14 -5
-3 -15 1 -22 9 -14 16 -5 18 17 5z m-176 -140 c3 -14 1 -18 -9 -14 -8 3 -14
11 -14 19 0 21 17 17 23 -5z m47 13 c0 -8 -19 -13 -24 -6 -3 5 1 9 9 9 8 0 15
-2 15 -3z m426 -460 c58 -28 84 -68 84 -128 0 -45 -4 -57 -30 -83 -37 -38 -91
-49 -150 -32 -54 16 -72 44 -72 114 -1 65 18 97 72 126 42 23 53 23 96 3z
m-26 -524 c0 -5 -2 -10 -4 -10 -3 0 -8 5 -11 10 -3 6 -1 10 4 10 6 0 11 -4 11
-10z m76 -25 c-1 -8 -5 -18 -9 -21 -4 -4 -7 -22 -7 -41 0 -18 -5 -33 -10 -33
-6 0 -8 16 -4 40 5 31 4 40 -7 38 -7 -2 -15 5 -17 15 -3 13 3 17 26 17 21 0
30 -5 28 -15z m-42 -119 c-3 -8 -1 -17 5 -21 6 -3 11 -16 10 -28 0 -21 -1 -21
-10 3 -6 13 -15 28 -22 32 -9 6 -8 10 3 18 20 13 20 13 14 -4z m-1199 -2725
c-3 -6 -11 -11 -17 -11 -6 0 -6 6 2 15 14 17 26 13 15 -4z m-43 -28 c-6 -2
-10 -9 -6 -14 3 -5 1 -8 -4 -7 -12 4 -55 -49 -73 -89 -15 -35 -30 -45 -22 -15
7 28 91 132 106 131 9 0 9 -2 -1 -6z m-127 -213 c-18 -68 -19 -116 -2 -124 10
-5 10 -7 0 -12 -7 -3 -13 -17 -13 -32 0 -14 -3 -23 -6 -19 -13 13 -6 145 11
196 22 67 29 61 10 -9z m9 -214 c-3 -7 2 -21 11 -30 9 -9 13 -20 10 -26 -3 -5
0 -10 8 -10 7 0 20 -11 27 -25 7 -14 19 -25 27 -25 7 0 13 -6 13 -14 0 -21 28
-46 45 -40 11 5 15 -1 15 -21 0 -20 4 -26 15 -21 8 3 14 0 12 -7 -1 -7 7 -11
18 -9 16 2 17 1 5 -7 -16 -11 -90 25 -87 43 1 5 -4 10 -10 11 -18 0 -74 65
-67 76 3 5 0 8 -6 7 -7 -2 -15 4 -20 12 -4 8 -15 29 -24 47 -20 39 -20 53 -1
53 8 0 12 -6 9 -14z m263 -252 c-3 -3 -12 -4 -19 -1 -8 3 -5 6 6 6 11 1 17 -2
13 -5z"/>
<path d="M3080 4903 c0 -5 5 -15 10 -23 8 -12 10 -11 10 8 0 12 -4 22 -10 22
-5 0 -10 -3 -10 -7z"/>
<path d="M3670 4130 c0 -5 5 -10 11 -10 5 0 7 -5 3 -12 -4 -7 -3 -8 5 -4 9 6
9 11 0 22 -14 17 -19 18 -19 4z"/>
<path d="M3713 4045 c0 -8 4 -12 9 -9 5 3 6 10 3 15 -9 13 -12 11 -12 -6z"/>
<path d="M1705 2220 c-3 -5 -1 -10 4 -10 6 0 11 5 11 10 0 6 -2 10 -4 10 -3 0
-8 -4 -11 -10z"/>
<path d="M1642 2190 c-18 -11 -32 -18 -32 -15 0 3 -9 -3 -19 -12 -24 -20 -77
-39 -167 -57 -143 -30 -211 -111 -183 -219 14 -57 65 -117 99 -117 20 0 22 -2
10 -10 -12 -8 -10 -10 8 -10 14 0 21 -4 16 -11 -4 -8 -1 -8 13 -1 22 12 133 4
133 -9 0 -5 11 -9 25 -9 14 0 25 5 25 10 0 6 3 9 8 9 22 -4 31 4 37 32 5 20
10 27 15 20 5 -9 11 -8 24 4 9 10 20 14 24 11 3 -4 0 -11 -8 -16 -8 -5 -11
-12 -7 -16 4 -4 18 5 31 19 14 15 34 27 46 27 21 0 46 42 29 48 -20 8 -7 21
24 25 l32 3 -32 8 c-18 5 -33 12 -33 17 0 5 -7 9 -15 9 -8 0 -15 5 -15 10 0 6
7 10 16 10 9 0 24 10 35 23 19 22 19 22 34 3 8 -11 15 -14 15 -7 0 7 5 9 12 5
7 -5 8 -3 4 5 -5 7 -10 10 -13 7 -8 -8 -43 28 -43 45 0 9 -9 24 -20 34 -11 10
-20 23 -19 29 0 6 3 6 6 -1 2 -7 12 -13 21 -12 10 0 12 3 6 5 -7 3 -10 14 -7
24 3 11 0 20 -6 20 -6 0 -11 -4 -11 -10 0 -5 -8 -10 -17 -10 -15 0 -15 1 1 13
18 13 18 14 2 20 -12 5 -15 13 -11 26 6 21 2 25 -35 34 -17 4 -37 -1 -58 -13z
m69 -53 c-10 -9 -11 -8 -5 6 3 10 9 15 12 12 3 -3 0 -11 -7 -18z m13 -236 c3
-4 -6 -6 -19 -3 -14 2 -25 6 -25 8 0 8 39 4 44 -5z m36 -37 c0 -3 -7 -12 -15
-20 -16 -17 -18 -14 -9 10 6 15 24 23 24 10z m-53 -26 c-3 -8 -6 -5 -6 6 -1
11 2 17 5 13 3 -3 4 -12 1 -19z"/>
<path d="M1740 2162 c0 -8 43 -32 55 -32 15 0 1 19 -20 28 -31 14 -35 15 -35
4z"/>
<path d="M1795 2110 c-3 -5 -2 -10 4 -10 5 0 13 5 16 10 3 6 2 10 -4 10 -5 0
-13 -4 -16 -10z"/>
<path d="M1831 2074 c0 -11 3 -14 6 -6 3 7 2 16 -1 19 -3 4 -6 -2 -5 -13z"/>
<path d="M1788 1933 c7 -3 16 -2 19 1 4 3 -2 6 -13 5 -11 0 -14 -3 -6 -6z"/>
</g>
</svg>
